<?xml version="1.0" standalone="no"?>
<!DOCTYPE svg PUBLIC "-//W3C//DTD SVG 20010904//EN"
 "http://www.w3.org/TR/2001/REC-SVG-20010904/DTD/svg10.dtd">
<svg version="1.0" xmlns="http://www.w3.org/2000/svg"
 width="16.000000pt" height="16.000000pt" viewBox="0 0 16.000000 16.000000"
 preserveAspectRatio="xMidYMid meet">
<metadata>
Created by potrace 1.11, written by Peter Selinger 2001-2013
</metadata>
<g transform="translate(0.000000,16.000000) scale(0.011034,-0.011034)"
fill="#000000" stroke="none">
<path d="M0 725 l0 -725 725 0 725 0 0 725 0 725 -725 0 -725 0 0 -725z m945
615 c38 -24 73 -85 81 -141 5 -37 3 -47 -15 -63 -35 -32 -69 -12 -91 53 -19
57 -32 71 -68 71 -41 0 -111 -144 -137 -283 l-7 -37 69 0 c77 0 113 -17 113
-54 0 -39 -26 -51 -124 -56 l-90 -5 -73 -299 c-77 -316 -98 -371 -155 -406
-99 -60 -214 -16 -273 104 -21 43 -24 58 -16 79 9 22 17 27 45 27 32 0 37 -5
63 -52 47 -87 114 -103 150 -35 9 17 47 156 83 307 l67 275 -92 5 c-99 5 -125
17 -125 56 0 41 34 54 146 54 l102 0 17 73 c39 156 86 268 133 310 52 48 136
54 197 17z m-17 -670 c11 -11 35 -39 53 -64 18 -25 36 -46 39 -46 4 0 26 25
49 55 57 75 82 91 118 73 49 -23 43 -56 -26 -137 -34 -38 -61 -74 -61 -80 0
-5 26 -40 58 -78 32 -37 62 -76 65 -86 8 -22 -7 -53 -33 -67 -31 -17 -64 4
-116 74 -26 36 -51 66 -54 66 -4 0 -28 -27 -53 -60 -59 -76 -86 -94 -120 -81
-31 12 -42 43 -26 73 6 13 36 51 65 85 30 33 54 65 54 70 0 4 -25 37 -56 73
-74 87 -83 130 -32 149 28 10 51 4 76 -19z"/>
</g>
</svg>
