<?xml version="1.0" standalone="no"?>
<!DOCTYPE svg PUBLIC "-//W3C//DTD SVG 20010904//EN"
 "http://www.w3.org/TR/2001/REC-SVG-20010904/DTD/svg10.dtd">
<svg version="1.0" xmlns="http://www.w3.org/2000/svg"
 width="16.000000pt" height="16.000000pt" viewBox="0 0 16.000000 16.000000"
 preserveAspectRatio="xMidYMid meet">
<metadata>
Created by potrace 1.11, written by Peter Selinger 2001-2013
</metadata>
<g transform="translate(0.000000,16.000000) scale(0.002174,-0.002174)"
fill="#000000" stroke="none">
<path d="M0 3680 l0 -3680 3680 0 3680 0 0 3680 0 3680 -3680 0 -3680 0 0
-3680z m3392 2055 c90 -24 178 -69 238 -125 l52 -48 45 43 c124 119 329 174
523 141 191 -33 336 -133 405 -278 l34 -70 78 -27 c95 -32 153 -65 222 -127
120 -108 201 -268 222 -436 l12 -94 76 -36 c42 -20 102 -59 133 -87 177 -159
271 -447 225 -690 l-12 -64 60 -61 c113 -115 168 -271 168 -476 0 -211 -58
-366 -178 -479 l-63 -58 15 -54 c49 -182 -58 -452 -256 -646 -167 -164 -390
-259 -548 -234 l-50 8 -57 -59 c-160 -162 -500 -220 -804 -138 -83 23 -174 66
-221 105 l-31 27 -31 -27 c-51 -42 -145 -85 -248 -112 -80 -21 -120 -25 -241
-26 -256 -2 -427 56 -547 186 l-41 44 -53 -8 c-122 -19 -289 33 -434 136 -67
48 -195 177 -242 245 -113 165 -164 377 -125 514 l11 39 -63 59 c-118 107
-178 274 -178 488 1 198 56 350 169 467 61 64 61 64 50 101 -18 60 -14 256 7
337 58 223 206 411 376 477 l60 23 0 60 c1 264 215 541 469 606 50 13 52 14
86 83 38 79 112 162 181 202 148 87 336 112 506 69z"/>
<path d="M3107 5550 c-48 -12 -113 -45 -158 -81 -91 -71 -124 -220 -67 -306
36 -55 103 -96 216 -134 128 -42 178 -68 230 -120 77 -77 141 -244 142 -369 0
-97 -47 -219 -115 -298 -67 -78 -142 -120 -345 -196 -25 -9 -54 -23 -64 -31
-18 -14 -18 -15 0 -41 45 -63 55 -82 74 -139 23 -71 26 -143 16 -325 -8 -130
-7 -137 16 -179 17 -32 39 -53 78 -75 53 -30 59 -31 180 -31 102 0 138 4 198
23 l72 23 0 1032 0 1032 -24 50 c-28 60 -80 109 -156 144 -46 21 -72 26 -155
28 -55 1 -117 -2 -138 -7z"/>
<path d="M4005 5547 c-92 -31 -162 -84 -198 -151 l-22 -41 -3 -1041 -2 -1041
67 -23 c94 -31 262 -39 334 -16 66 22 101 48 128 96 24 44 26 75 16 281 -7
134 -6 153 14 217 12 39 37 91 56 116 19 26 35 50 35 54 0 13 -67 47 -140 71
-199 68 -315 170 -372 326 -55 154 -9 379 105 502 53 58 105 88 219 125 51 16
109 38 129 49 120 61 164 162 123 281 -23 70 -75 122 -160 164 -70 35 -82 38
-182 41 -70 2 -121 -2 -147 -10z"/>
<path d="M2605 5173 c-54 -22 -135 -80 -173 -124 -103 -118 -119 -309 -38
-438 30 -47 106 -117 151 -138 19 -9 35 -20 35 -24 0 -11 -61 -153 -70 -163
-11 -11 -98 33 -167 85 -28 21 -71 63 -95 94 -27 34 -50 55 -63 55 -32 0 -117
-54 -162 -103 -127 -138 -157 -369 -77 -592 38 -104 38 -105 22 -105 -29 0
-134 -60 -177 -101 -24 -24 -57 -71 -75 -108 -30 -64 -31 -70 -31 -206 1 -123
4 -147 24 -200 36 -92 76 -141 140 -173 52 -25 65 -27 176 -27 144 1 189 17
253 90 94 107 76 244 -60 444 -39 57 -79 122 -89 145 -58 133 -20 284 101 400
65 63 135 100 222 121 75 18 192 19 253 4 44 -11 45 -11 82 26 41 41 114 80
220 119 104 37 142 58 190 107 60 60 77 110 71 206 -11 172 -80 245 -306 325
-48 16 -105 41 -127 54 -77 45 -147 136 -161 211 -7 37 -13 38 -69 16z"/>
<path d="M4696 5178 c-20 -69 -45 -115 -83 -158 -55 -61 -101 -89 -215 -129
-169 -59 -232 -104 -276 -200 -30 -65 -40 -163 -22 -226 15 -54 75 -126 135
-160 23 -14 73 -36 112 -49 102 -35 178 -75 225 -118 42 -38 43 -39 91 -28
227 48 465 -57 560 -249 28 -57 32 -76 32 -146 0 -95 -24 -156 -105 -265 -102
-137 -144 -283 -110 -385 18 -54 72 -109 133 -136 108 -47 303 -33 382 27 85
64 129 203 123 379 -4 98 -8 118 -35 177 -39 83 -95 138 -190 185 -57 28 -72
40 -67 52 112 247 89 534 -52 675 -45 44 -130 96 -159 96 -12 0 -36 -21 -62
-54 -63 -82 -240 -203 -263 -180 -11 12 -73 164 -69 168 2 1 24 14 49 28 60
35 136 117 162 176 29 65 35 173 13 247 -32 112 -102 195 -211 249 -70 34 -93
40 -98 24z"/>
<path d="M2523 3925 c-115 -31 -178 -83 -199 -164 -18 -72 -2 -127 73 -238
100 -150 149 -299 141 -432 -10 -176 -121 -304 -318 -366 -38 -12 -94 -18
-180 -20 -142 -2 -137 2 -139 -101 -4 -200 212 -472 444 -559 65 -25 165 -34
165 -16 0 5 -6 40 -14 78 -53 255 -16 425 117 549 187 175 437 186 595 27 86
-87 141 -244 127 -364 -10 -84 -9 -83 -108 -57 l-87 23 0 70 c-1 219 -213 320
-378 180 -116 -98 -130 -358 -29 -549 44 -84 113 -149 184 -176 114 -43 379
-37 507 11 64 24 124 73 142 115 11 27 14 139 14 580 l0 546 -22 -7 c-230 -74
-410 -63 -552 33 -72 48 -130 127 -156 209 -23 74 -25 129 -9 256 34 280 -95
432 -318 372z"/>
<path d="M4671 3927 c-19 -6 -54 -29 -77 -51 -66 -64 -75 -111 -72 -357 l3
-204 -32 -67 c-82 -175 -275 -266 -501 -238 -44 6 -106 19 -138 30 -31 11 -61
20 -66 20 -4 0 -8 -245 -8 -545 0 -528 1 -547 20 -586 49 -96 196 -149 410
-149 270 1 380 72 456 295 22 65 27 99 28 180 1 170 -45 264 -156 319 -94 47
-191 27 -259 -53 -44 -50 -61 -105 -58 -179 l3 -56 -88 -24 c-73 -19 -90 -21
-98 -10 -5 7 -7 63 -5 123 3 103 6 115 40 187 45 94 106 156 193 199 58 29 76
33 148 33 100 0 172 -21 253 -73 86 -55 140 -112 173 -183 54 -113 62 -262 25
-438 -8 -39 -15 -73 -15 -76 0 -12 104 -1 154 16 167 57 333 214 418 395 24
53 32 86 36 144 2 42 0 87 -5 100 -10 24 -12 25 -134 26 -85 2 -141 8 -179 20
-137 43 -237 124 -288 233 -24 51 -27 69 -27 162 1 92 5 116 32 192 28 80 48
118 148 276 58 92 55 177 -7 248 -70 80 -227 123 -327 91z"/>
</g>
</svg>
